<?xml version="1.0" encoding="UTF-8"?>
<svg xmlns="http://www.w3.org/2000/svg" version="1.1" width="500" height="500" viewBox="0 0 500 500"><rect x="0" y="0" width="500" height="500" fill="#ffffff"/><g transform="scale(18.519)"><g transform="translate(1,1)"><g><g transform="translate(3.5,3.5)"><path fill-rule="evenodd" d="M-3.5 -3.5L3.5 -3.5L3.5 3.5L-3.5 3.5ZM-2.5 -2.5L-2.5 2.5L2.5 2.5L2.5 -2.5Z" fill="#000000"/><path fill-rule="evenodd" d="M-1.5 -1.5L1.5 -1.5L1.5 1.5L-1.5 1.5Z" fill="#000000"/></g></g><g><g transform="translate(21.5,3.5)"><g transform="rotate(90)"><path fill-rule="evenodd" d="M-3.5 -3.5L3.5 -3.5L3.5 3.5L-3.5 3.5ZM-2.5 -2.5L-2.5 2.5L2.5 2.5L2.5 -2.5Z" fill="#000000"/><path fill-rule="evenodd" d="M-1.5 -1.5L1.5 -1.5L1.5 1.5L-1.5 1.5Z" fill="#000000"/></g></g></g><g><g transform="translate(3.5,21.5)"><g transform="rotate(-90)"><path fill-rule="evenodd" d="M-3.5 -3.5L3.5 -3.5L3.5 3.5L-3.5 3.5ZM-2.5 -2.5L-2.5 2.5L2.5 2.5L2.5 -2.5Z" fill="#000000"/><path fill-rule="evenodd" d="M-1.5 -1.5L1.5 -1.5L1.5 1.5L-1.5 1.5Z" fill="#000000"/></g></g></g><path fill-rule="evenodd" d="M8 0L8 2L9 2L9 0ZM10 0L10 2L11 2L11 3L8 3L8 4L9 4L9 5L11 5L11 6L10 6L10 7L9 7L9 6L8 6L8 8L5 8L5 10L4 10L4 12L3 12L3 11L2 11L2 9L4 9L4 8L2 8L2 9L1 9L1 8L0 8L0 10L1 10L1 11L0 11L0 12L1 12L1 15L0 15L0 16L1 16L1 15L2 15L2 13L4 13L4 12L5 12L5 10L6 10L6 11L7 11L7 12L6 12L6 13L7 13L7 14L6 14L6 15L9 15L9 13L11 13L11 14L12 14L12 13L13 13L13 11L14 11L14 12L15 12L15 13L14 13L14 14L15 14L15 15L14 15L14 16L15 16L15 15L18 15L18 14L19 14L19 15L22 15L22 12L23 12L23 14L24 14L24 15L23 15L23 17L21 17L21 16L16 16L16 19L15 19L15 18L14 18L14 17L13 17L13 15L12 15L12 16L10 16L10 17L9 17L9 16L5 16L5 17L8 17L8 20L9 20L9 18L11 18L11 17L12 17L12 19L10 19L10 21L8 21L8 23L10 23L10 21L11 21L11 20L12 20L12 22L11 22L11 23L12 23L12 25L14 25L14 22L15 22L15 25L16 25L16 24L18 24L18 23L19 23L19 21L20 21L20 22L21 22L21 23L20 23L20 24L21 24L21 23L22 23L22 25L25 25L25 23L24 23L24 22L25 22L25 18L23 18L23 17L24 17L24 16L25 16L25 14L24 14L24 13L25 13L25 8L23 8L23 9L24 9L24 10L21 10L21 9L22 9L22 8L21 8L21 9L19 9L19 8L18 8L18 9L17 9L17 5L16 5L16 7L15 7L15 6L14 6L14 7L13 7L13 6L12 6L12 5L13 5L13 4L12 4L12 2L11 2L11 0ZM14 0L14 1L13 1L13 3L14 3L14 4L17 4L17 3L16 3L16 2L15 2L15 3L14 3L14 1L15 1L15 0ZM16 0L16 1L17 1L17 0ZM11 6L11 7L10 7L10 8L11 8L11 9L10 9L10 10L12 10L12 11L13 11L13 10L14 10L14 8L13 8L13 7L12 7L12 6ZM8 8L8 9L6 9L6 10L8 10L8 12L7 12L7 13L9 13L9 10L8 10L8 9L9 9L9 8ZM12 8L12 9L13 9L13 8ZM15 8L15 9L16 9L16 10L15 10L15 11L16 11L16 13L17 13L17 14L18 14L18 12L17 12L17 11L20 11L20 12L21 12L21 10L19 10L19 9L18 9L18 10L17 10L17 9L16 9L16 8ZM16 10L16 11L17 11L17 10ZM1 11L1 12L2 12L2 11ZM23 11L23 12L24 12L24 11ZM20 13L20 14L21 14L21 13ZM4 14L4 15L5 15L5 14ZM2 16L2 17L3 17L3 16ZM17 17L17 20L20 20L20 17ZM18 18L18 19L19 19L19 18ZM21 18L21 22L23 22L23 21L24 21L24 20L23 20L23 19L22 19L22 18ZM14 19L14 21L13 21L13 22L12 22L12 23L13 23L13 22L14 22L14 21L15 21L15 19ZM22 20L22 21L23 21L23 20ZM17 21L17 22L16 22L16 23L18 23L18 21ZM8 24L8 25L9 25L9 24ZM10 24L10 25L11 25L11 24Z" fill="#000000"/></g></g></svg>
