<svg xmlns="http://www.w3.org/2000/svg" width="1200" height="750" viewBox="0 0 1200 750" role="img" aria-labelledby="t">
  <title id="t">معاينة توضيحية أوامر العمل في أسس برو</title>
  <defs>
    <linearGradient id="bg" x1="0" y1="0" x2="1" y2="1">
      <stop offset="0%" stop-color="#0c4a6e"/>
      <stop offset="55%" stop-color="#0369a1"/>
      <stop offset="100%" stop-color="#1e3a8a"/>
    </linearGradient>
    <linearGradient id="shine" x1="0" y1="0" x2="0" y2="1">
      <stop offset="0%" stop-color="#ffffff" stop-opacity="0.12"/>
      <stop offset="100%" stop-color="#000000" stop-opacity="0.12"/>
    </linearGradient>
  </defs>
  <rect width="1200" height="750" fill="#020617"/>
  <rect x="36" y="36" width="1128" height="678" rx="28" fill="url(#bg)"/>
  <rect x="36" y="36" width="1128" height="678" rx="28" fill="url(#shine)"/>
  <rect x="72" y="108" width="1056" height="564" rx="14" fill="#0f172a" stroke="#1e293b" stroke-width="2"/>
  <rect x="92" y="132" width="280" height="14" rx="4" fill="#334155"/>
  <rect x="92" y="158" width="400" height="10" rx="3" fill="#1e293b"/>
  <rect x="92" y="200" width="1016" height="72" rx="12" fill="#1e293b"/>
  <circle cx="128" cy="236" r="18" fill="#38bdf8" opacity="0.85"/>
  <rect x="160" y="218" width="200" height="12" rx="3" fill="#94a3b8"/>
  <rect x="160" y="238" width="420" height="10" rx="3" fill="#475569"/>
  <rect x="92" y="292" width="1016" height="8" rx="4" fill="#334155"/>
  <rect x="92" y="318" width="1016" height="120" rx="10" fill="#1e293b"/>
  <rect x="112" y="338" width="120" height="80" rx="6" fill="#0f172a"/>
  <rect x="252" y="338" width="836" height="22" rx="5" fill="#334155"/>
  <rect x="252" y="372" width="600" height="16" rx="4" fill="#475569"/>
  <rect x="252" y="400" width="180" height="28" rx="6" fill="#0ea5e9" opacity="0.9"/>
  <rect x="92" y="456" width="1016" height="120" rx="10" fill="#172554" opacity="0.6"/>
  <text x="600" y="86" text-anchor="middle" fill="#e0f2fe" font-size="34" font-weight="700" font-family="Tahoma, 'Segoe UI', Arial, sans-serif">أوامر العمل</text>
  <text x="600" y="118" text-anchor="middle" fill="#7dd3fc" font-size="18" font-family="Tahoma, 'Segoe UI', Arial, sans-serif">تتبع المراحل والمركبة، توضيح بصري</text>
</svg>
