<svg xmlns="http://www.w3.org/2000/svg" width="1200" height="750" viewBox="0 0 1200 750" role="img" aria-labelledby="t">
  <title id="t">معاينة مركز القيادة في أسس برو</title>
  <defs>
    <linearGradient id="bg" x1="0" y1="0" x2="1" y2="1">
      <stop offset="0%" stop-color="#312e81"/>
      <stop offset="45%" stop-color="#4f46e5"/>
      <stop offset="100%" stop-color="#1e1b4b"/>
    </linearGradient>
    <linearGradient id="shine" x1="0" y1="0" x2="0" y2="1">
      <stop offset="0%" stop-color="#ffffff" stop-opacity="0.1"/>
      <stop offset="100%" stop-color="#000000" stop-opacity="0.15"/>
    </linearGradient>
  </defs>
  <rect width="1200" height="750" fill="#020617"/>
  <rect x="36" y="36" width="1128" height="678" rx="28" fill="url(#bg)"/>
  <rect x="36" y="36" width="1128" height="678" rx="28" fill="url(#shine)"/>
  <rect x="72" y="108" width="1056" height="564" rx="14" fill="#0f172a" stroke="#312e81" stroke-width="2"/>
  <rect x="92" y="132" width="300" height="14" rx="4" fill="#4f46e5" opacity="0.6"/>
  <rect x="92" y="158" width="420" height="10" rx="3" fill="#334155"/>
  <rect x="92" y="200" width="480" height="220" rx="14" fill="#1e1b4b"/>
  <rect x="112" y="228" width="120" height="12" rx="3" fill="#a5b4fc"/>
  <rect x="112" y="252" width="200" height="8" rx="2" fill="#64748b"/>
  <circle cx="140" cy="320" r="36" fill="#6366f1" opacity="0.35"/>
  <rect x="200" y="296" width="340" height="48" rx="10" fill="#312e81"/>
  <rect x="592" y="200" width="536" height="220" rx="14" fill="#1e293b"/>
  <rect x="612" y="228" width="496" height="36" rx="8" fill="#334155"/>
  <rect x="612" y="280" width="240" height="120" rx="10" fill="#0f172a"/>
  <rect x="868" y="280" width="240" height="120" rx="10" fill="#0f172a"/>
  <rect x="92" y="440" width="1016" height="200" rx="14" fill="#1e293b"/>
  <rect x="112" y="468" width="976" height="32" rx="6" fill="#334155" opacity="0.8"/>
  <rect x="112" y="516" width="300" height="100" rx="8" fill="#312e81"/>
  <rect x="428" y="516" width="300" height="100" rx="8" fill="#312e81"/>
  <rect x="744" y="516" width="344" height="100" rx="8" fill="#312e81"/>
  <text x="600" y="86" text-anchor="middle" fill="#eef2ff" font-size="34" font-weight="700" font-family="Tahoma, 'Segoe UI', Arial, sans-serif">مركز القيادة والذكاء التشغيلي</text>
  <text x="600" y="118" text-anchor="middle" fill="#c7d2fe" font-size="18" font-family="Tahoma, 'Segoe UI', Arial, sans-serif">تنبيهات ومؤشرات من النشاط داخل المنصة</text>
</svg>
