<svg xmlns="http://www.w3.org/2000/svg" width="1200" height="750" viewBox="0 0 1200 750" role="img" aria-labelledby="t">
  <title id="t">معاينة توضيحية التقارير في أسس برو</title>
  <defs>
    <linearGradient id="bg" x1="0" y1="1" x2="1" y2="0">
      <stop offset="0%" stop-color="#4c1d95"/>
      <stop offset="50%" stop-color="#7c3aed"/>
      <stop offset="100%" stop-color="#86198f"/>
    </linearGradient>
    <linearGradient id="shine" x1="0" y1="0" x2="0" y2="1">
      <stop offset="0%" stop-color="#ffffff" stop-opacity="0.11"/>
      <stop offset="100%" stop-color="#000000" stop-opacity="0.12"/>
    </linearGradient>
  </defs>
  <rect width="1200" height="750" fill="#020617"/>
  <rect x="36" y="36" width="1128" height="678" rx="28" fill="url(#bg)"/>
  <rect x="36" y="36" width="1128" height="678" rx="28" fill="url(#shine)"/>
  <rect x="72" y="108" width="1056" height="564" rx="14" fill="#0f172a" stroke="#1e293b" stroke-width="2"/>
  <rect x="92" y="132" width="260" height="14" rx="4" fill="#334155"/>
  <rect x="92" y="158" width="380" height="10" rx="3" fill="#1e293b"/>
  <rect x="92" y="200" width="328" height="200" rx="12" fill="#1e293b"/>
  <rect x="112" y="268" width="120" height="100" rx="4" fill="#4c1d95" opacity="0.5"/>
  <rect x="248" y="300" width="24" height="68" rx="3" fill="#a78bfa"/>
  <rect x="284" y="260" width="24" height="108" rx="3" fill="#c084fc"/>
  <rect x="320" y="288" width="24" height="80" rx="3" fill="#e879f9"/>
  <rect x="440" y="200" width="668" height="200" rx="12" fill="#1e293b"/>
  <polyline points="460,340 520,300 600,320 700,260 820,280 1088,240" fill="none" stroke="#c4b5fd" stroke-width="4" stroke-linecap="round"/>
  <rect x="92" y="420" width="1016" height="220" rx="12" fill="#1e293b"/>
  <rect x="112" y="448" width="976" height="36" rx="6" fill="#334155" opacity="0.7"/>
  <rect x="112" y="496" width="976" height="28" rx="4" fill="#0f172a"/>
  <rect x="112" y="536" width="976" height="28" rx="4" fill="#0f172a"/>
  <rect x="112" y="576" width="976" height="28" rx="4" fill="#0f172a"/>
  <text x="600" y="86" text-anchor="middle" fill="#f5f3ff" font-size="34" font-weight="700" font-family="Tahoma, 'Segoe UI', Arial, sans-serif">التقارير واللوحات</text>
  <text x="600" y="118" text-anchor="middle" fill="#d8b4fe" font-size="18" font-family="Tahoma, 'Segoe UI', Arial, sans-serif">مؤشرات من نشاطك اليومي، توضيح بصري</text>
</svg>
